<svg xmlns="http://www.w3.org/2000/svg" viewBox="0 0 377.94 139.3"><defs><style>.cls-1{fill:#231f20;}</style></defs><title>cn3_logo1_positiv</title><g id="Layer_2" data-name="Layer 2"><g id="Layer_1-2" data-name="Layer 1"><path class="cls-1" d="M56.83,20.49h47.89V0H56.83C40.19,0,26.91,4.27,17.36,12.66,5.84,22.78,0,38.56,0,59.58v20.6c0,21,5.85,36.78,17.36,46.88,9.55,8.4,22.83,12.23,39.47,12.23h47.89V118.82H56.83c-25.46,0-36.31-11.28-36.31-38.68V59.58c0-27.4,10.86-39.09,36.31-39.09"/><path class="cls-1" d="M244.11,89.78c1.55,1.38,3,2.65,4.4,3.86V0H228V73.27c7.45,7.9,13.55,14.22,16.12,16.51"/><path class="cls-1" d="M274.17,139.3c-19.58,0-34.57-12-50.76-26.42-7.14-6.37-30.3-31.41-50.73-53.5C161.08,46.84,151.06,36,147.35,32.26c-7.95-8-18-11.74-32.51-11.74V0c20,0,35.41,5.81,47.23,17.74,4,4,14.09,14.95,25.82,27.63C206,64.95,230.8,91.76,237.21,97.48c15.71,14,25.75,21.16,37,21.16Z"/><path class="cls-1" d="M165.06,66.38c-7.92-8.56-15.51-16.76-20.5-22.07v95h20.52V66.41l0,0"/><path class="cls-1" d="M377.94,41.24C377.94,19.5,360,0,338.74,0H285.06V20.49h53.68c10.12,0,18.67,10.11,18.67,20.75,0,10.27-8.38,17.62-18.67,17.62H317V79.24h21.75c10.3,0,18.67,9.67,18.67,19.95,0,10.64-8.55,19.63-18.67,19.63H285.06v20.47h53.68c21.25,0,39.2-18.36,39.2-40.11,0-11.48-5-22.93-12.92-30.09,7.92-7.16,12.92-16.37,12.92-27.85"/></g></g></svg>